Coordinates
version=1
nRows=9
nColumns=36
inDegrees=yes

Units are S.I. units (second, meters, Newtons, ...)
If the header above contains a line with 'inDegrees', this indicates whether rotational values are in degrees (yes) or radians (no).

endheader
time	pelvis_tilt	pelvis_list	pelvis_rotation	pelvis_tx	pelvis_ty	pelvis_tz	hip_flexion_r	hip_adduction_r	hip_rotation_r	knee_angle_r	knee_angle_r_beta	ankle_angle_r	subtalar_angle_r	mtp_angle_r	hip_flexion_l	hip_adduction_l	hip_rotation_l	knee_angle_l	knee_angle_l_beta	ankle_angle_l	subtalar_angle_l	mtp_angle_l	lumbar_extension	lumbar_bending	lumbar_rotation	arm_flex_r	arm_add_r	arm_rot_r	elbow_flex_r	pro_sup_r	arm_flex_l	arm_add_l	arm_rot_l	elbow_flex_l	pro_sup_l
      0.00000000	     -0.98841505	      2.80493326	      0.73243056	     -0.17719853	      0.99467893	     -0.29869999	     27.65984851	     -1.83666521	     -1.34913225	      7.29503849	      0.12732244	     -0.06950489	     -8.14585489	     -4.94427283	    -19.19777724	      4.73569782	     -1.70005103	     10.36627113	      0.18092556	     11.89793120	     10.94720001	     -4.94427283	     -9.97403955	      0.60302809	     -5.50657458	     -6.31754439	     -6.76763691	    -13.48249411	     32.17366188	    107.41761018	      6.50662680	    -10.62897819	      4.02000727	     66.33585238	    108.77833932
      0.01000000	     -0.75806661	      2.21801853	      0.76200946	     -0.16185923	      0.99409405	     -0.29694479	     27.39647135	     -1.21993679	     -2.35617308	      8.48380235	      0.14807028	     -1.49990299	     -8.34744726	     -4.97201235	    -19.36125910	      3.89987640	     -2.08863091	     12.09127054	      0.21103248	     11.08492479	     10.42872494	     -4.97201235	    -10.11955221	      1.42308788	     -5.39728186	     -6.23577664	     -6.84663641	    -13.57722744	     32.06490718	    107.52519520	      5.85005446	    -10.21623730	      3.88321876	     65.73873189	    108.86060694
      0.02000000	     -0.55354411	      1.60757256	      0.79959896	     -0.14646821	      0.99365964	     -0.29517032	     27.16560606	     -0.58533776	     -3.24798588	      9.72640066	      0.16975772	     -2.99042280	     -8.83143880	     -4.99551490	    -19.41808083	      3.01405881	     -2.55085069	     13.91992822	      0.24294858	     10.12510557	      9.96075246	     -4.99551490	    -10.22578999	      2.26973925	     -5.30411304	     -6.17039703	     -6.93376261	    -13.62220863	     31.98952350	    107.62239269	      5.16728061	     -9.77708669	      3.71901393	     65.05036370	    108.91228429
      0.03000000	     -0.44218894	      0.97279271	      0.83854940	     -0.13100893	      0.99342317	     -0.29332526	     27.03128887	      0.08189201	     -3.92932253	     11.03994633	      0.19268341	     -4.40766723	     -9.62952194	     -5.02240174	    -19.20277963	      2.06196096	     -3.09176006	     15.99219241	      0.27911641	      8.88630486	      9.52766276	     -5.02240174	    -10.18664204	      3.12977357	     -5.22096345	     -6.12183365	     -7.01726612	    -13.66434751	     31.93357996	    107.73739882	      4.43745798	     -9.32583088	      3.49419023	     64.22114548	    108.96627356
      0.04000000	     -0.20190058	      0.39254114	      0.84361222	     -0.11553115	      0.99380721	     -0.29146527	     26.80457877	      0.69731298	     -4.37085400	     12.58050965	      0.21957131	     -5.14059298	    -10.22757245	     -5.03654118	    -19.03553424	      1.18702503	     -3.36036923	     18.11703477	      0.31620191	      7.43160022	      9.21032706	     -5.03654118	    -10.35417258	      3.94853149	     -5.08971686	     -6.02205721	     -7.08871658	    -13.69461898	     31.91021253	    107.79735606	      3.70237707	     -8.92860060	      3.34119437	     63.39755719	    108.95465069
      0.05000000	     -0.47314366	     -0.19134561	      0.83024553	     -0.09995453	      0.99387300	     -0.28941427	     27.13447333	      1.36252532	     -4.67905572	     14.14886778	      0.24694433	     -6.51857115	    -12.21668943	     -5.11722668	    -17.81252388	      0.15108466	     -4.35135037	     21.06269862	      0.36761344	      5.37932226	      8.57688248	     -5.11722668	     -9.80069034	      4.72376093	     -4.96328404	     -6.09476260	     -7.12724786	    -13.90416384	     31.89227599	    108.13409126	      2.84094815	     -8.37227093	      2.93820194	     62.08637223	    109.21556295
      0.06000000	     -0.39314601	     -0.79446005	      0.80409695	     -0.08441480	      0.99487282	     -0.28738522	     27.03398797	      2.02698865	     -5.03736350	     15.77818783	      0.27538133	     -6.45000431	    -12.85761467	     -5.15508694	    -16.85852463	     -0.92812036	     -5.06011363	     24.05364563	      0.41981531	      2.88527728	      8.02737163	     -5.15508694	     -9.72626524	      5.53380007	     -4.79860748	     -6.06765023	     -7.17418898	    -14.01597876	     32.00981478	    108.27915658	      2.05099507	     -7.90343803	      2.66939881	     60.85411159	    109.23852985
      0.07000000	     -0.39940335	     -1.27662319	      0.77481652	     -0.06908476	      0.99599312	     -0.28536270	     26.99737431	      2.57705581	     -5.27735982	     17.41998006	      0.30403601	     -6.12980267	    -13.55139300	     -5.21564477	    -15.52719900	     -1.92619450	     -5.59710867	     27.42255484	      0.47861387	      0.15105588	      7.23881578	     -5.21564477	     -9.56523991	      6.20255093	     -4.59247453	     -6.08122777	     -7.18209592	    -14.28366385	     32.19123756	    108.48964086	      1.31226062	     -7.46620574	      2.42655220	     59.45075518	    109.31145240
      0.08000000	     -0.39511850	     -1.79191568	      0.76884872	     -0.05396949	      0.99733746	     -0.28324087	     26.79810438	      3.18588307	     -5.46510941	     18.81262701	      0.32834228	     -5.52499009	    -14.09057016	     -5.27767684	    -13.95204661	     -3.04776662	     -6.06751764	     31.10431944	      0.54287279	     -2.86426942	      6.40471460	     -5.27767684	     -9.44297231	      6.88618167	     -4.38175998	     -6.07917722	     -7.17158230	    -14.56391976	     32.46122805	    108.68854154	      0.61902333	     -7.07917982	      2.22976016	     57.96112649	    109.34244695
